#N canvas 216 128 832 596 10;
#X msg 76 250 connect 192.168.3.125 9000;
#X obj 209 391 udpsend;
#X obj 307 366 packOSC;
#X floatatom 300 93 5 0 0 0 - - -;
#X obj 384 180 pack i i i;
#X floatatom 382 23 5 0 0 0 - - -;
#X floatatom 448 33 5 0 0 0 - - -;
#X obj 337 57 t b;
#X msg 18 209 connect 127.0.0.1 9000;
#X msg 367 321 send /set-bg-color \$1 \$2 \$3;
#X msg 272 225 disconnect;
#X obj 324 136 clip 0 255;
#X obj 399 134 clip 0 255;
#X obj 474 134 clip 0 255;
#X msg 407 250 send /play-video http://www.quirksmode.org/html5/videos/big_buck_bunny.mp4
1;
#X msg 289 479 send /stop-video;
#X msg 289 509 send /pause-video;
#X msg 286 537 send /continue-video;
#X msg 406 409 send /play-video http://192.168.3.108/video/ElephantsDream.mp4
0;
#X msg 408 454 send /play-video http://192.168.3.108/video/VID_20190402_140552_720p.mp4
1;
#X connect 0 0 1 0;
#X connect 2 0 1 0;
#X connect 3 0 11 0;
#X connect 4 0 9 0;
#X connect 5 0 7 0;
#X connect 5 0 12 0;
#X connect 6 0 7 0;
#X connect 6 0 13 0;
#X connect 7 0 3 0;
#X connect 8 0 1 0;
#X connect 9 0 2 0;
#X connect 10 0 1 0;
#X connect 11 0 4 0;
#X connect 12 0 4 1;
#X connect 13 0 4 2;
#X connect 14 0 2 0;
#X connect 15 0 2 0;
#X connect 16 0 2 0;
#X connect 17 0 2 0;
#X connect 18 0 2 0;
#X connect 19 0 2 0;
